<svg width="182" height="84" fill="none" xmlns="http://www.w3.org/2000/svg"><path fill-rule="evenodd" clip-rule="evenodd" d="M80.49 14.716c2.512.958 4.177 2.551 4.177 2.551.018-.773.22-1.568.509-2.241 0 0-.804-1.501-3.177-3.127-2.548-1.747-5.457-2.234-5.457-2.234a15.296 15.296 0 00-1.233 4.118s2.128-.232 5.181.933M82.295 9.644c2.396 2.317 3.262 4.646 3.262 4.646a6.06 6.06 0 011.728-1.798s-.89-2.793-2.33-4.857c-1.441-2.063-3.776-3.776-3.776-3.776a15.621 15.621 0 00-3.011 3.065s2.377 1.027 4.127 2.72" fill="#FFFFFE"/><mask id="a" maskUnits="userSpaceOnUse" x="84" y="0" width="7" height="13"><path fill-rule="evenodd" clip-rule="evenodd" d="M84.287.795h6.06v11.347h-6.06V.795z" fill="#fff"/></mask><g mask="url(#a)"><path fill-rule="evenodd" clip-rule="evenodd" d="M86.51 6.75a23.317 23.317 0 011.358 5.392 6.786 6.786 0 012.48-.734s.042-2.67-.546-5.415C89.114 2.785 88.33.795 88.33.795a15.54 15.54 0 00-4.042 1.199s1.475 2.844 2.223 4.756" fill="#FFFFFE"/></g><path fill-rule="evenodd" clip-rule="evenodd" d="M100.828 14.716c-2.513.958-4.176 2.551-4.176 2.551a6.204 6.204 0 00-.51-2.241s.805-1.501 3.177-3.127c2.549-1.747 5.457-2.234 5.457-2.234a15.277 15.277 0 011.233 4.118s-2.127-.232-5.181.933M99.022 9.644c-2.396 2.317-3.262 4.646-3.262 4.646a6.049 6.049 0 00-1.729-1.798s.89-2.793 2.332-4.857c1.441-2.063 3.775-3.776 3.775-3.776 1.14.878 2.155 1.91 3.012 3.065 0 0-2.378 1.027-4.128 2.72" fill="#FFFFFE"/><mask id="b" maskUnits="userSpaceOnUse" x="90" y="0" width="8" height="13"><path fill-rule="evenodd" clip-rule="evenodd" d="M90.969.795h6.061v11.347H90.97V.795z" fill="#fff"/></mask><g mask="url(#b)"><path fill-rule="evenodd" clip-rule="evenodd" d="M94.807 6.75c-1.083 2.767-1.358 5.392-1.358 5.392a6.784 6.784 0 00-2.48-.734s-.042-2.67.546-5.415c.688-3.208 1.472-5.198 1.472-5.198 1.421.218 2.777.627 4.043 1.199 0 0-1.475 2.844-2.223 4.756" fill="#FFFFFE"/></g><path fill-rule="evenodd" clip-rule="evenodd" d="M82.575 24.137c2.993-1.425 6.012-1.13 6.012-1.13a6.069 6.069 0 01-2.681-1.97s-2.681-.32-4.735.094c-3.11.627-4.487 1.706-4.487 1.706a15.484 15.484 0 002.395 3.56s1.284-1.206 3.496-2.26M80.248 19.626c3.051-.147 5.157.65 5.157.65a5.876 5.876 0 01-.71-2.255s-2.424-1.38-4.658-1.68c-3.093-.415-4.896.178-4.896.178.04 1.465.283 2.88.703 4.216 0 0 1.982-.993 4.404-1.11" fill="#FFFFFE"/><path fill-rule="evenodd" clip-rule="evenodd" d="M90.659 26.474c4.368 0 6.28 3.78 6.28 3.78a15.635 15.635 0 003.742-2.343s-3.69-4.642-10.022-4.642c-6.331 0-10.022 4.642-10.022 4.642a15.68 15.68 0 003.743 2.343s1.91-3.78 6.279-3.78" fill="#FFFFFE"/><path fill-rule="evenodd" clip-rule="evenodd" d="M98.743 24.137c-2.993-1.425-6.012-1.13-6.012-1.13a6.067 6.067 0 002.682-1.97s2.68-.32 4.735.094c3.109.627 4.488 1.706 4.488 1.706a15.504 15.504 0 01-2.397 3.56s-1.283-1.206-3.496-2.26M101.069 19.626c-3.052-.147-5.157.65-5.157.65a5.891 5.891 0 00.71-2.255s2.423-1.38 4.658-1.68c3.093-.415 4.896.178 4.896.178a15.375 15.375 0 01-.704 4.216s-1.982-.993-4.403-1.11M29.377 36.098v5.53h2.332c2.472 0 3.544-.968 3.544-2.766 0-1.796-1.055-2.764-3.544-2.764h-2.332zm0 10.453h1.607v1.261h-4.648v-1.26h1.607V36.046h-1.607v-1.262h5.373c2.973 0 4.977 1.296 4.977 4.077 0 2.782-2.021 4.078-4.977 4.078h-2.332v3.611zM45.345 42.646c.018-1.762-1.313-3.11-3.093-3.11s-3.11 1.348-3.093 3.11h6.186zm1.107 2.506c-.415 1.624-1.936 2.868-4.2 2.868-2.8 0-4.51-1.762-4.51-4.873 0-2.953 1.78-4.872 4.51-4.872 2.955 0 4.839 2.264 4.459 5.615h-7.535c.12 1.435 1.123 2.869 3.076 2.869 1.296 0 2.246-.536 2.73-1.607h1.47zM51.481 46.603h1.487v1.21h-4.355v-1.21H50.1v-6.91h-1.486v-1.21H51.378v1.33c.553-1.002 1.918-1.936 3.75-1.314v1.349c-2.195-.622-3.647.587-3.647 2.729v4.026zM66.033 46.603h1.486v1.21h-4.354v-1.21h1.485v-3.94c0-2.193-1.313-3.109-2.747-3.109-1.435 0-2.66 1.002-2.66 3.196v3.853h1.485v1.21h-4.355v-1.21h1.486v-6.91h-1.486v-1.21h2.766v1.33c.5-.777 1.571-1.521 3.023-1.521 2.056 0 3.871 1.175 3.871 4.372v3.939zM73.31 46.759c1.815 0 3.162-1.28 3.162-3.612s-1.347-3.61-3.162-3.61c-1.814 0-3.162 1.278-3.162 3.61s1.348 3.612 3.162 3.612m0-8.484c2.869 0 4.545 2.056 4.545 4.872S76.18 48.02 73.31 48.02c-2.868 0-4.544-2.057-4.544-4.873 0-2.816 1.676-4.872 4.544-4.872M80.898 43.148c0 2.367 1.4 3.611 3.128 3.611 1.728 0 3.128-1.244 3.128-3.611 0-2.368-1.4-3.612-3.128-3.612-1.728 0-3.128 1.244-3.128 3.612zm7.586 3.455h1.487v1.21h-2.817v-1.33c-.553.83-1.763 1.537-3.25 1.537-2.66 0-4.388-2.09-4.388-4.872 0-2.783 1.728-4.873 4.389-4.873 1.4 0 2.627.622 3.197 1.538v-3.835h-1.486v-1.21h2.868v11.835zM99.254 36.098v4.838h3.059c1.953 0 2.799-.968 2.799-2.42 0-1.45-.83-2.418-2.799-2.418h-3.06zm-3.059-1.33h6.118c2.453 0 4.251 1.313 4.251 3.749 0 2.074-1.314 3.335-3.214 3.663l2.125 4.354h1.694v1.278h-2.714l-2.678-5.545h-2.523v4.285h1.434v1.26h-4.493v-1.26h1.607V36.029h-1.607v-1.261z" fill="#FFFFFE"/><mask id="c" maskUnits="userSpaceOnUse" x="0" y="15" width="182" height="69"><path fill-rule="evenodd" clip-rule="evenodd" d="M.857 83.832H181.08V15.045H.857v68.787z" fill="#fff"/></mask><g mask="url(#c)" fill-rule="evenodd" clip-rule="evenodd" fill="#FFFFFE"><path d="M110.177 36.513h1.573v-1.745h-1.573v1.745zm1.555 10.09h1.486v1.21h-4.355v-1.21h1.487v-6.91h-1.487v-1.21H111.732v8.12zM123.571 44.41c-.536 2.124-1.971 3.61-4.51 3.61-2.87 0-4.545-2.056-4.545-4.872s1.675-4.873 4.545-4.873c1.33 0 2.539.639 3.092 1.538v-1.33h1.332v3.403h-1.504c-.415-1.261-1.261-2.35-2.92-2.35-1.815 0-3.163 1.28-3.163 3.612s1.348 3.61 3.163 3.61c1.572 0 2.643-.95 3.075-2.349h1.435zM126.613 43.148c0 2.367 1.399 3.611 3.128 3.611 1.727 0 3.128-1.244 3.128-3.611 0-2.368-1.401-3.612-3.128-3.612-1.729 0-3.128 1.244-3.128 3.611zm6.204-4.666h2.817v1.21h-1.487v6.91h1.487v1.21h-2.817v-1.33c-.57.916-1.797 1.538-3.197 1.538-2.661 0-4.39-2.09-4.39-4.873 0-2.782 1.729-4.872 4.39-4.872 1.4 0 2.627.622 3.197 1.537v-1.33zM140.51 46.603h1.485v1.21h-4.354v-1.21h1.486v-6.91h-1.486v-1.21H140.405v1.33c.553-1.002 1.919-1.936 3.751-1.314v1.349c-2.194-.622-3.646.587-3.646 2.729v4.026zM146.248 43.148c0 2.367 1.399 3.611 3.127 3.611 1.728 0 3.129-1.244 3.129-3.611 0-2.368-1.401-3.612-3.129-3.612s-3.127 1.244-3.127 3.612zm7.587 3.455h1.484v1.21h-2.815v-1.33c-.553.83-1.763 1.537-3.25 1.537-2.66 0-4.389-2.09-4.389-4.872 0-2.783 1.729-4.873 4.389-4.873 1.4 0 2.628.622 3.198 1.538v-3.835h-1.487v-1.21h2.87v11.835z"/></g></svg>
